<svg width="24" height="24" viewBox="0 0 24 24" fill="none" xmlns="http://www.w3.org/2000/svg">
<g clip-path="url(#clip0_46_7)">
<path d="M14.348 7.5C13.326 7.5 12.4435 8.0985 12 8.9715C11.5565 8.0985 10.674 7.5 9.652 7.5C8.187 7.5 7 8.7285 7 10.2405C7 11.7525 7.9085 13.1385 9.0825 14.277C10.2565 15.4155 12 16.5 12 16.5C12 16.5 13.687 15.4335 14.9175 14.277C16.23 13.044 17 11.757 17 10.2405C17 8.724 15.813 7.5 14.348 7.5Z" fill="white"/>
</g>
<rect x="0.5" y="0.5" width="23" height="23" rx="11.5" stroke="white"/>
<defs>
<clipPath id="clip0_46_7">
<rect width="24" height="24" rx="12" fill="white"/>
</clipPath>
</defs>
</svg>
