<svg width="32" height="32" viewBox="0 0 32 32" fill="none" xmlns="http://www.w3.org/2000/svg">
<g clip-path="url(#clip0_141_3084)">
<path d="M20 22.6663C19.4444 22.6663 18.9722 22.4719 18.5833 22.083C18.1944 21.6941 18 21.2219 18 20.6663C18 20.5886 18.0056 20.508 18.0167 20.4247C18.0278 20.3413 18.0444 20.2663 18.0667 20.1997L13.3667 17.4663C13.1778 17.633 12.9667 17.7636 12.7333 17.858C12.5 17.9525 12.2556 17.9997 12 17.9997C11.4444 17.9997 10.9722 17.8052 10.5833 17.4163C10.1944 17.0275 10 16.5552 10 15.9997C10 15.4441 10.1944 14.9719 10.5833 14.583C10.9722 14.1941 11.4444 13.9997 12 13.9997C12.2556 13.9997 12.5 14.0469 12.7333 14.1413C12.9667 14.2358 13.1778 14.3663 13.3667 14.533L18.0667 11.7997C18.0444 11.733 18.0278 11.658 18.0167 11.5747C18.0056 11.4913 18 11.4108 18 11.333C18 10.7775 18.1944 10.3052 18.5833 9.91634C18.9722 9.52745 19.4444 9.33301 20 9.33301C20.5556 9.33301 21.0278 9.52745 21.4167 9.91634C21.8056 10.3052 22 10.7775 22 11.333C22 11.8886 21.8056 12.3608 21.4167 12.7497C21.0278 13.1386 20.5556 13.333 20 13.333C19.7444 13.333 19.5 13.2858 19.2667 13.1913C19.0333 13.0969 18.8222 12.9663 18.6333 12.7997L13.9333 15.533C13.9556 15.5997 13.9722 15.6747 13.9833 15.758C13.9944 15.8413 14 15.9219 14 15.9997C14 16.0775 13.9944 16.158 13.9833 16.2413C13.9722 16.3247 13.9556 16.3997 13.9333 16.4663L18.6333 19.1997C18.8222 19.033 19.0333 18.9025 19.2667 18.808C19.5 18.7136 19.7444 18.6663 20 18.6663C20.5556 18.6663 21.0278 18.8608 21.4167 19.2497C21.8056 19.6386 22 20.1108 22 20.6663C22 21.2219 21.8056 21.6941 21.4167 22.083C21.0278 22.4719 20.5556 22.6663 20 22.6663ZM20 11.9997C20.1889 11.9997 20.3472 11.9358 20.475 11.808C20.6028 11.6802 20.6667 11.5219 20.6667 11.333C20.6667 11.1441 20.6028 10.9858 20.475 10.858C20.3472 10.7302 20.1889 10.6663 20 10.6663C19.8111 10.6663 19.6528 10.7302 19.525 10.858C19.3972 10.9858 19.3333 11.1441 19.3333 11.333C19.3333 11.5219 19.3972 11.6802 19.525 11.808C19.6528 11.9358 19.8111 11.9997 20 11.9997ZM12 16.6663C12.1889 16.6663 12.3472 16.6025 12.475 16.4747C12.6028 16.3469 12.6667 16.1886 12.6667 15.9997C12.6667 15.8108 12.6028 15.6525 12.475 15.5247C12.3472 15.3969 12.1889 15.333 12 15.333C11.8111 15.333 11.6528 15.3969 11.525 15.5247C11.3972 15.6525 11.3333 15.8108 11.3333 15.9997C11.3333 16.1886 11.3972 16.3469 11.525 16.4747C11.6528 16.6025 11.8111 16.6663 12 16.6663ZM20 21.333C20.1889 21.333 20.3472 21.2691 20.475 21.1413C20.6028 21.0136 20.6667 20.8552 20.6667 20.6663C20.6667 20.4775 20.6028 20.3191 20.475 20.1913C20.3472 20.0636 20.1889 19.9997 20 19.9997C19.8111 19.9997 19.6528 20.0636 19.525 20.1913C19.3972 20.3191 19.3333 20.4775 19.3333 20.6663C19.3333 20.8552 19.3972 21.0136 19.525 21.1413C19.6528 21.2691 19.8111 21.333 20 21.333Z" fill="#333333"/>
</g>
<rect x="0.5" y="0.5" width="31" height="31" rx="15.5" stroke="#333333"/>
<defs>
<clipPath id="clip0_141_3084">
<rect width="32" height="32" rx="16" fill="white"/>
</clipPath>
</defs>
</svg>
