<svg width="32" height="32" viewBox="0 0 32 32" fill="none" xmlns="http://www.w3.org/2000/svg">
<g clip-path="url(#clip0_253_10659)">
<path d="M20 22.6673C19.4444 22.6673 18.9722 22.4729 18.5833 22.084C18.1944 21.6951 18 21.2229 18 20.6673C18 20.5895 18.0056 20.509 18.0167 20.4257C18.0278 20.3423 18.0444 20.2673 18.0667 20.2007L13.3667 17.4673C13.1778 17.634 12.9667 17.7645 12.7333 17.859C12.5 17.9534 12.2556 18.0007 12 18.0007C11.4444 18.0007 10.9722 17.8062 10.5833 17.4173C10.1944 17.0284 10 16.5562 10 16.0007C10 15.4451 10.1944 14.9729 10.5833 14.584C10.9722 14.1951 11.4444 14.0007 12 14.0007C12.2556 14.0007 12.5 14.0479 12.7333 14.1423C12.9667 14.2368 13.1778 14.3673 13.3667 14.534L18.0667 11.8007C18.0444 11.734 18.0278 11.659 18.0167 11.5757C18.0056 11.4923 18 11.4118 18 11.334C18 10.7784 18.1944 10.3062 18.5833 9.91732C18.9722 9.52843 19.4444 9.33398 20 9.33398C20.5556 9.33398 21.0278 9.52843 21.4167 9.91732C21.8056 10.3062 22 10.7784 22 11.334C22 11.8895 21.8056 12.3618 21.4167 12.7507C21.0278 13.1395 20.5556 13.334 20 13.334C19.7444 13.334 19.5 13.2868 19.2667 13.1923C19.0333 13.0979 18.8222 12.9673 18.6333 12.8007L13.9333 15.534C13.9556 15.6007 13.9722 15.6757 13.9833 15.759C13.9944 15.8423 14 15.9229 14 16.0007C14 16.0784 13.9944 16.159 13.9833 16.2423C13.9722 16.3257 13.9556 16.4007 13.9333 16.4673L18.6333 19.2007C18.8222 19.034 19.0333 18.9034 19.2667 18.809C19.5 18.7145 19.7444 18.6673 20 18.6673C20.5556 18.6673 21.0278 18.8618 21.4167 19.2507C21.8056 19.6395 22 20.1118 22 20.6673C22 21.2229 21.8056 21.6951 21.4167 22.084C21.0278 22.4729 20.5556 22.6673 20 22.6673ZM20 12.0007C20.1889 12.0007 20.3472 11.9368 20.475 11.809C20.6028 11.6812 20.6667 11.5229 20.6667 11.334C20.6667 11.1451 20.6028 10.9868 20.475 10.859C20.3472 10.7312 20.1889 10.6673 20 10.6673C19.8111 10.6673 19.6528 10.7312 19.525 10.859C19.3972 10.9868 19.3333 11.1451 19.3333 11.334C19.3333 11.5229 19.3972 11.6812 19.525 11.809C19.6528 11.9368 19.8111 12.0007 20 12.0007ZM12 16.6673C12.1889 16.6673 12.3472 16.6034 12.475 16.4757C12.6028 16.3479 12.6667 16.1895 12.6667 16.0007C12.6667 15.8118 12.6028 15.6534 12.475 15.5257C12.3472 15.3979 12.1889 15.334 12 15.334C11.8111 15.334 11.6528 15.3979 11.525 15.5257C11.3972 15.6534 11.3333 15.8118 11.3333 16.0007C11.3333 16.1895 11.3972 16.3479 11.525 16.4757C11.6528 16.6034 11.8111 16.6673 12 16.6673ZM20 21.334C20.1889 21.334 20.3472 21.2701 20.475 21.1423C20.6028 21.0145 20.6667 20.8562 20.6667 20.6673C20.6667 20.4784 20.6028 20.3201 20.475 20.1923C20.3472 20.0645 20.1889 20.0007 20 20.0007C19.8111 20.0007 19.6528 20.0645 19.525 20.1923C19.3972 20.3201 19.3333 20.4784 19.3333 20.6673C19.3333 20.8562 19.3972 21.0145 19.525 21.1423C19.6528 21.2701 19.8111 21.334 20 21.334Z" fill="white"/>
</g>
<rect x="0.5" y="0.5" width="31" height="31" rx="15.5" stroke="white"/>
<defs>
<clipPath id="clip0_253_10659">
<rect width="32" height="32" rx="16" fill="white"/>
</clipPath>
</defs>
</svg>
